<svg width="117" height="18" viewBox="0 0 117 18" fill="none" xmlns="http://www.w3.org/2000/svg">
<path d="M10.8364 6.31953C10.7285 5.94451 10.5769 5.61315 10.3817 5.32546C10.1865 5.03264 9.94761 4.78604 9.66506 4.58569C9.38764 4.3802 9.06913 4.22351 8.70952 4.11563C8.35504 4.00774 7.96204 3.9538 7.5305 3.9538C6.72395 3.9538 6.015 4.15416 5.40366 4.55486C4.79745 4.95558 4.32482 5.53866 3.98576 6.30412C3.6467 7.06444 3.47717 7.99429 3.47717 9.09368C3.47717 10.1931 3.64413 11.1281 3.97805 11.8987C4.31198 12.6692 4.78461 13.2575 5.39595 13.6633C6.00729 14.064 6.72908 14.2644 7.56133 14.2644C8.31651 14.2644 8.96124 14.1308 9.49553 13.8637C10.0349 13.5914 10.4459 13.2087 10.7285 12.7155C11.0162 12.2223 11.16 11.6392 11.16 10.9662L11.8381 11.0664H7.76939V8.55426H14.3734V10.5424C14.3734 11.9295 14.0806 13.1213 13.4949 14.118C12.9093 15.1095 12.1027 15.8749 11.0752 16.4143C10.0478 16.9486 8.87134 17.2158 7.54592 17.2158C6.06637 17.2158 4.76663 16.8895 3.6467 16.2371C2.52676 15.5795 1.65342 14.6471 1.02667 13.4398C0.405054 12.2274 0.0942471 10.789 0.0942471 9.1245C0.0942471 7.84531 0.27919 6.70483 0.649077 5.70305C1.0241 4.69614 1.54811 3.84335 2.22109 3.14467C2.89408 2.446 3.67752 1.91429 4.57141 1.54954C5.46531 1.18479 6.43369 1.00242 7.47656 1.00242C8.37045 1.00242 9.2027 1.13342 9.97329 1.39542C10.7439 1.65229 11.4272 2.01703 12.0231 2.48967C12.6241 2.9623 13.1148 3.52483 13.4949 4.17727C13.8751 4.82457 14.1191 5.53866 14.227 6.31953H10.8364ZM16.8798 17V1.21818H23.1987C24.3597 1.21818 25.3281 1.39028 26.1038 1.73448C26.8795 2.07868 27.4626 2.55645 27.8531 3.16779C28.2435 3.77399 28.4387 4.47267 28.4387 5.26381C28.4387 5.88029 28.3154 6.42228 28.0688 6.88977C27.8222 7.35213 27.4832 7.73229 27.0516 8.03026C26.6252 8.32308 26.1372 8.53114 25.5875 8.65444V8.80856C26.1886 8.83424 26.7511 9.00378 27.2751 9.31715C27.8043 9.63053 28.2332 10.0698 28.562 10.6349C28.8908 11.1948 29.0552 11.8627 29.0552 12.6384C29.0552 13.4758 28.8471 14.2233 28.431 14.8809C28.02 15.5333 27.4113 16.0496 26.6047 16.4298C25.7981 16.8099 24.8041 17 23.6225 17H16.8798ZM20.2164 14.2721H22.9367C23.8665 14.2721 24.5446 14.0949 24.971 13.7404C25.3974 13.3808 25.6106 12.903 25.6106 12.3071C25.6106 11.8704 25.5053 11.4851 25.2947 11.1512C25.0841 10.8172 24.7835 10.5552 24.3931 10.3652C24.0078 10.1751 23.548 10.08 23.0137 10.08H20.2164V14.2721ZM20.2164 7.8222H22.6901C23.1473 7.8222 23.5531 7.74257 23.9076 7.58331C24.2672 7.41892 24.5498 7.18774 24.7553 6.88977C24.9659 6.59181 25.0712 6.23477 25.0712 5.81864C25.0712 5.2484 24.8683 4.78861 24.4624 4.43928C24.0617 4.08994 23.4915 3.91527 22.7517 3.91527H20.2164V7.8222ZM38.9689 17H35.3933L40.8415 1.21818H45.1414L50.5818 17H47.0062L43.0531 4.82457H42.9298L38.9689 17ZM38.7454 10.7967H47.1912V13.4013H38.7454V10.7967ZM56.2303 17.1926C55.3313 17.1926 54.517 16.9615 53.7875 16.4991C53.0631 16.0316 52.4877 15.3458 52.0614 14.4416C51.6401 13.5323 51.4295 12.4175 51.4295 11.0972C51.4295 9.74098 51.6478 8.61334 52.0845 7.71431C52.5211 6.81014 53.1017 6.13459 53.826 5.68764C54.5555 5.23556 55.3544 5.00952 56.2226 5.00952C56.8853 5.00952 57.4375 5.12254 57.8794 5.34858C58.3263 5.56948 58.6859 5.8469 58.9582 6.18082C59.2356 6.50961 59.4462 6.83326 59.5901 7.15178H59.6903V1.21818H62.9653V17H59.7288V15.1043H59.5901C59.436 15.4331 59.2176 15.7593 58.9351 16.083C58.6577 16.4015 58.2955 16.6661 57.8485 16.8767C57.4067 17.0873 56.8673 17.1926 56.2303 17.1926ZM57.2706 14.5803C57.7997 14.5803 58.2467 14.4365 58.6114 14.1488C58.9813 13.856 59.2639 13.4475 59.4591 12.9235C59.6594 12.3995 59.7596 11.7856 59.7596 11.0818C59.7596 10.378 59.662 9.76667 59.4668 9.2478C59.2716 8.72893 58.989 8.32822 58.6191 8.04567C58.2492 7.76312 57.7997 7.62184 57.2706 7.62184C56.7312 7.62184 56.2765 7.76825 55.9066 8.06108C55.5367 8.35391 55.2568 8.75975 55.0667 9.27862C54.8766 9.79749 54.7816 10.3986 54.7816 11.0818C54.7816 11.7702 54.8766 12.379 55.0667 12.9081C55.2619 13.4321 55.5419 13.8431 55.9066 14.1411C56.2765 14.4339 56.7312 14.5803 57.2706 14.5803ZM76.6993 5.16364L72.5611 17H68.8623L64.7242 5.16364H68.1919L70.6501 13.6325H70.7734L73.2239 5.16364H76.6993ZM78.3792 17V5.16364H81.6619V17H78.3792ZM80.0282 3.63786C79.5402 3.63786 79.1215 3.47603 78.7722 3.15238C78.428 2.82359 78.2559 2.43059 78.2559 1.97337C78.2559 1.52128 78.428 1.13342 78.7722 0.809766C79.1215 0.480978 79.5402 0.316584 80.0282 0.316584C80.5163 0.316584 80.9324 0.480978 81.2766 0.809766C81.6259 1.13342 81.8006 1.52128 81.8006 1.97337C81.8006 2.43059 81.6259 2.82359 81.2766 3.15238C80.9324 3.47603 80.5163 3.63786 80.0282 3.63786ZM94.1398 8.53885L91.1344 8.72379C91.0831 8.46693 90.9726 8.23575 90.8031 8.03026C90.6336 7.81963 90.4101 7.65266 90.1327 7.52937C89.8604 7.40094 89.5342 7.33672 89.154 7.33672C88.6454 7.33672 88.2165 7.4446 87.8671 7.66037C87.5178 7.871 87.3431 8.15355 87.3431 8.50803C87.3431 8.79058 87.4561 9.02946 87.6822 9.22468C87.9082 9.4199 88.2961 9.57659 88.8458 9.69474L90.988 10.1263C92.1388 10.3626 92.9967 10.7428 93.5618 11.2668C94.1269 11.7908 94.4095 12.4792 94.4095 13.332C94.4095 14.1077 94.1809 14.7884 93.7237 15.374C93.2716 15.9597 92.65 16.4169 91.8588 16.7457C91.0728 17.0694 90.1661 17.2312 89.1386 17.2312C87.5717 17.2312 86.3234 16.905 85.3935 16.2525C84.4688 15.5949 83.9268 14.7011 83.7675 13.5708L86.9963 13.4013C87.094 13.8791 87.3303 14.2438 87.7053 14.4956C88.0803 14.7422 88.5607 14.8654 89.1463 14.8654C89.7217 14.8654 90.184 14.755 90.5334 14.5341C90.8879 14.308 91.0677 14.0178 91.0728 13.6633C91.0677 13.3654 90.9418 13.1213 90.6952 12.9313C90.4486 12.736 90.0685 12.5871 89.5547 12.4843L87.5049 12.0759C86.349 11.8447 85.4885 11.444 84.9234 10.8738C84.3635 10.3035 84.0835 9.57659 84.0835 8.69297C84.0835 7.93265 84.289 7.27764 84.7 6.72795C85.1161 6.17826 85.6992 5.75443 86.4492 5.45646C87.2044 5.1585 88.088 5.00952 89.1001 5.00952C90.595 5.00952 91.7715 5.32546 92.6294 5.95735C93.4925 6.58924 93.9959 7.44974 94.1398 8.53885ZM101.871 17.2312C100.653 17.2312 99.6052 16.9846 98.7268 16.4914C97.8534 15.9931 97.1804 15.2893 96.7078 14.38C96.2352 13.4655 95.9988 12.3841 95.9988 11.1358C95.9988 9.91822 96.2352 8.84966 96.7078 7.93008C97.1804 7.0105 97.8457 6.29384 98.7036 5.78011C99.5667 5.26638 100.579 5.00952 101.74 5.00952C102.521 5.00952 103.248 5.13538 103.921 5.38711C104.599 5.6337 105.189 6.00616 105.693 6.50447C106.202 7.00279 106.597 7.62955 106.88 8.38473C107.162 9.13478 107.303 10.0133 107.303 11.0202V11.9218H97.3089V9.88739H104.213C104.213 9.41476 104.111 8.99607 103.905 8.63132C103.7 8.26657 103.415 7.98145 103.05 7.77596C102.69 7.56533 102.271 7.46001 101.794 7.46001C101.295 7.46001 100.854 7.5756 100.468 7.80678C100.088 8.03282 99.7902 8.33849 99.5744 8.72379C99.3586 9.10395 99.2482 9.52778 99.2431 9.99528V11.9295C99.2431 12.5151 99.3509 13.0212 99.5667 13.4475C99.7876 13.8739 100.098 14.2027 100.499 14.4339C100.9 14.6651 101.375 14.7807 101.925 14.7807C102.289 14.7807 102.623 14.7293 102.927 14.6266C103.23 14.5238 103.489 14.3697 103.705 14.1642C103.921 13.9587 104.085 13.707 104.198 13.409L107.234 13.6094C107.08 14.3389 106.764 14.9759 106.286 15.5205C105.814 16.0599 105.202 16.4811 104.452 16.7842C103.707 17.0822 102.847 17.2312 101.871 17.2312ZM109.446 17V5.16364H112.628V7.22884H112.752C112.967 6.4942 113.33 5.93937 113.838 5.56435C114.347 5.18419 114.932 4.99411 115.595 4.99411C115.76 4.99411 115.937 5.00438 116.127 5.02493C116.317 5.04548 116.484 5.07373 116.628 5.10969V8.02255C116.474 7.97631 116.26 7.93522 115.988 7.89925C115.716 7.86329 115.467 7.84531 115.241 7.84531C114.758 7.84531 114.326 7.95063 113.946 8.16126C113.571 8.36675 113.273 8.65444 113.052 9.02433C112.836 9.39421 112.728 9.82061 112.728 10.3035V17H109.446Z" fill="black"/>
</svg>
